<mxfile host="app.diagrams.net" agent="Mozilla/5.0 (Macintosh; Intel Mac OS X 10_15_7) AppleWebKit/537.36 (KHTML, like Gecko) Chrome/126.0.0.0 Safari/537.36" version="24.7.6">
  <diagram name="第 1 页" id="UkCr60l6doCuPXUa8gNd">
    <mxGraphModel dx="1242" dy="741" grid="1" gridSize="10" guides="1" tooltips="1" connect="1" arrows="1" fold="1" page="1" pageScale="1" pageWidth="827" pageHeight="1169" math="0" shadow="0">
      <root>
        <mxCell id="0" />
        <mxCell id="1" parent="0" />
        <mxCell id="NgFQl1eT9V0KVFHh0EC6-1" value="1号切片" style="rounded=0;whiteSpace=wrap;html=1;" vertex="1" parent="1">
          <mxGeometry x="80" y="300" width="120" height="60" as="geometry" />
        </mxCell>
        <mxCell id="NgFQl1eT9V0KVFHh0EC6-2" value="2号切片" style="rounded=0;whiteSpace=wrap;html=1;" vertex="1" parent="1">
          <mxGeometry x="240" y="300" width="120" height="60" as="geometry" />
        </mxCell>
        <mxCell id="NgFQl1eT9V0KVFHh0EC6-3" value="1857911号切片" style="rounded=0;whiteSpace=wrap;html=1;fillColor=#dae8fc;strokeColor=#6c8ebf;" vertex="1" parent="1">
          <mxGeometry x="414" y="300" width="120" height="60" as="geometry" />
        </mxCell>
        <mxCell id="NgFQl1eT9V0KVFHh0EC6-4" value="1857912号切片" style="rounded=0;whiteSpace=wrap;html=1;" vertex="1" parent="1">
          <mxGeometry x="580" y="300" width="120" height="60" as="geometry" />
        </mxCell>
        <mxCell id="NgFQl1eT9V0KVFHh0EC6-5" value="1857913号切片" style="rounded=0;whiteSpace=wrap;html=1;" vertex="1" parent="1">
          <mxGeometry x="750" y="300" width="120" height="60" as="geometry" />
        </mxCell>
        <mxCell id="NgFQl1eT9V0KVFHh0EC6-6" value="1857914号切片" style="rounded=0;whiteSpace=wrap;html=1;" vertex="1" parent="1">
          <mxGeometry x="80" y="400" width="120" height="60" as="geometry" />
        </mxCell>
        <mxCell id="NgFQl1eT9V0KVFHh0EC6-7" value="1857915号切片" style="rounded=0;whiteSpace=wrap;html=1;" vertex="1" parent="1">
          <mxGeometry x="240" y="400" width="120" height="60" as="geometry" />
        </mxCell>
        <mxCell id="NgFQl1eT9V0KVFHh0EC6-8" value="1857916号切片" style="rounded=0;whiteSpace=wrap;html=1;fillColor=#dae8fc;strokeColor=#6c8ebf;" vertex="1" parent="1">
          <mxGeometry x="414" y="400" width="120" height="60" as="geometry" />
        </mxCell>
        <mxCell id="NgFQl1eT9V0KVFHh0EC6-9" value="1857917号切片" style="rounded=0;whiteSpace=wrap;html=1;" vertex="1" parent="1">
          <mxGeometry x="580" y="400" width="120" height="60" as="geometry" />
        </mxCell>
        <mxCell id="NgFQl1eT9V0KVFHh0EC6-10" value="1857918号切片" style="rounded=0;whiteSpace=wrap;html=1;" vertex="1" parent="1">
          <mxGeometry x="750" y="400" width="120" height="60" as="geometry" />
        </mxCell>
        <mxCell id="NgFQl1eT9V0KVFHh0EC6-11" value="1857919号切片" style="rounded=0;whiteSpace=wrap;html=1;" vertex="1" parent="1">
          <mxGeometry x="79" y="490" width="120" height="60" as="geometry" />
        </mxCell>
        <mxCell id="NgFQl1eT9V0KVFHh0EC6-12" value="1857920号切片" style="rounded=0;whiteSpace=wrap;html=1;" vertex="1" parent="1">
          <mxGeometry x="239" y="490" width="120" height="60" as="geometry" />
        </mxCell>
        <mxCell id="NgFQl1eT9V0KVFHh0EC6-13" value="1857921号切片" style="rounded=0;whiteSpace=wrap;html=1;fillColor=#dae8fc;strokeColor=#6c8ebf;" vertex="1" parent="1">
          <mxGeometry x="413" y="490" width="120" height="60" as="geometry" />
        </mxCell>
        <mxCell id="NgFQl1eT9V0KVFHh0EC6-14" value="1857922号切片" style="rounded=0;whiteSpace=wrap;html=1;" vertex="1" parent="1">
          <mxGeometry x="579" y="490" width="120" height="60" as="geometry" />
        </mxCell>
        <mxCell id="NgFQl1eT9V0KVFHh0EC6-15" value="1857923号切片" style="rounded=0;whiteSpace=wrap;html=1;" vertex="1" parent="1">
          <mxGeometry x="749" y="490" width="120" height="60" as="geometry" />
        </mxCell>
      </root>
    </mxGraphModel>
  </diagram>
</mxfile>
